<?xml version="1.0" encoding="utf-8"?>
<svg xmlns="http://www.w3.org/2000/svg" height="512pt" version="1.1" viewBox="0 0 512 512" width="512pt">
<path d="M 0.00 0.00 L 512.00 0.00 L 512.00 512.00 L 0.00 512.00 L 0.00 0.00 Z" fill="transparent" opacity="1.00" stroke="transparent" stroke-width="0.25"/>
<path d="M 184.23 51.96 C 182.11 48.31 188.70 45.48 189.98 49.37 C 188.65 49.32 187.33 49.31 186.01 49.30 C 185.74 50.61 185.48 51.92 185.21 53.22 C 180.44 55.44 176.36 59.20 170.99 60.01 C 167.29 60.19 166.15 65.33 162.06 64.33 C 156.45 62.79 150.48 62.33 145.11 59.96 C 146.56 62.33 148.45 64.76 148.26 67.68 C 148.41 69.94 147.54 72.73 149.42 74.49 C 151.96 75.29 154.59 75.84 156.97 77.09 C 156.36 79.04 155.75 80.98 155.12 82.92 C 151.12 84.52 148.45 88.43 144.12 89.29 C 140.37 89.89 139.13 94.20 135.90 95.67 C 133.86 95.86 132.48 94.02 131.02 92.90 C 129.44 93.46 127.88 94.03 126.30 94.58 C 123.77 92.37 120.62 91.11 117.88 89.22 C 117.43 86.63 117.54 83.90 116.26 81.51 C 114.54 82.28 112.84 83.30 110.90 83.38 C 104.77 83.48 98.69 84.38 92.57 84.60 C 91.72 85.92 91.85 87.56 91.63 89.05 C 95.11 89.27 100.60 88.79 101.06 93.50 C 97.78 93.92 94.27 93.71 91.21 95.12 C 89.63 96.90 89.74 99.55 90.25 101.72 C 91.64 104.83 94.73 106.90 95.85 110.17 C 97.21 115.44 95.46 120.79 93.52 125.67 C 91.51 130.78 92.47 136.78 89.41 141.51 C 86.09 143.44 82.29 144.66 78.45 144.96 C 81.23 142.35 85.41 142.57 88.28 140.27 C 91.29 135.72 89.97 129.78 91.98 124.89 C 94.18 121.03 95.12 116.43 94.59 112.02 C 94.12 108.48 91.24 106.07 88.81 103.75 C 88.32 100.35 88.05 96.75 89.78 93.62 C 92.83 92.56 96.08 92.96 99.23 92.57 C 96.67 89.93 92.64 90.39 89.37 89.36 C 89.83 87.09 90.35 84.83 90.79 82.56 C 95.82 82.21 100.99 83.55 105.91 81.96 C 107.63 81.31 109.45 81.64 111.13 82.26 C 112.85 81.25 114.40 79.38 116.54 79.46 C 117.74 80.74 118.49 82.37 119.40 83.85 C 119.37 85.66 119.42 87.46 119.55 89.27 C 122.09 89.43 124.63 90.24 125.97 92.59 C 128.55 92.76 130.50 90.37 133.10 90.76 C 133.82 91.78 134.37 92.89 134.76 94.09 C 138.13 93.37 139.21 89.59 141.85 87.83 C 144.07 87.29 146.77 87.56 148.26 85.49 C 149.78 83.37 152.13 82.24 154.50 81.35 C 154.62 79.85 154.72 78.34 154.81 76.84 C 152.53 76.63 150.00 77.26 147.88 76.23 C 146.34 74.18 145.92 71.54 145.52 69.07 C 148.80 65.88 144.48 61.70 141.59 60.14 C 141.52 59.78 141.38 59.05 141.31 58.69 C 144.67 58.66 148.03 58.95 151.03 60.59 C 156.05 59.93 160.25 63.85 165.27 62.59 C 165.34 61.89 165.48 60.50 165.55 59.81 C 168.80 58.73 172.16 58.14 175.51 57.49 C 177.73 54.66 181.20 53.60 184.23 51.96 Z" fill="#0e2b3e" opacity="1.00" stroke="#0e2b3e" stroke-width="0.25"/>
<path d="M 186.01 49.30 C 187.33 49.31 188.65 49.32 189.98 49.37 C 190.96 49.94 191.71 50.82 192.56 51.56 C 192.20 52.47 191.50 54.29 191.15 55.20 C 193.36 56.48 195.64 57.72 197.48 59.55 C 196.39 61.12 195.43 62.92 196.03 64.88 C 193.55 66.93 191.41 69.76 190.92 72.99 C 191.90 76.53 193.85 79.70 195.48 82.96 C 196.67 85.33 199.56 85.94 201.28 87.81 C 202.87 89.69 201.40 93.27 203.85 94.47 C 206.72 94.08 204.24 90.86 204.06 89.24 C 206.40 87.60 208.25 85.14 211.07 84.26 C 213.82 83.41 216.33 81.91 219.14 81.25 C 222.26 81.14 225.34 82.09 228.49 81.80 C 228.05 82.76 227.62 83.73 227.19 84.70 C 231.19 85.32 230.66 79.37 233.50 77.74 C 236.48 75.23 240.43 76.67 243.94 76.34 C 245.97 77.13 247.28 79.17 248.95 80.53 C 251.65 78.78 255.08 77.42 258.24 78.77 C 261.10 80.13 264.14 78.28 267.14 78.63 C 268.50 76.23 269.20 73.57 270.11 70.99 C 271.59 68.27 274.04 66.24 275.86 63.76 L 276.14 63.72 C 277.64 63.75 280.90 62.32 280.98 64.92 C 280.91 70.63 284.95 75.18 285.42 80.78 C 285.25 81.18 284.92 81.97 284.76 82.37 C 283.50 82.33 282.24 82.24 280.98 82.15 C 280.64 83.73 280.61 85.35 280.96 86.93 C 280.36 89.24 280.09 91.62 280.01 94.00 C 279.89 98.10 278.63 102.23 279.77 106.30 C 278.09 108.71 276.91 111.41 275.82 114.13 C 278.04 114.94 280.16 113.88 282.18 113.04 C 283.44 121.49 280.24 129.69 279.72 138.05 C 279.13 141.05 277.93 143.93 277.98 147.03 C 277.96 151.68 276.15 156.03 275.27 160.54 C 271.43 162.48 270.39 167.05 270.25 170.98 C 271.30 174.91 273.34 178.82 272.27 183.00 C 271.99 188.53 265.47 190.03 263.66 194.77 C 262.25 198.31 260.93 201.89 259.68 205.50 C 257.70 212.22 260.50 218.98 261.86 225.52 C 258.43 226.32 254.19 227.44 253.85 231.66 C 255.05 231.50 256.25 231.33 257.46 231.16 C 256.30 234.25 256.21 237.56 255.72 240.78 C 254.69 242.53 252.46 241.46 250.85 241.57 C 250.58 242.23 250.32 242.89 250.06 243.55 C 251.45 243.81 252.84 244.08 254.23 244.35 C 254.39 247.76 252.16 250.41 249.38 252.07 C 248.22 251.33 247.05 250.60 245.89 249.88 C 246.65 252.57 247.46 255.25 248.41 257.89 C 245.59 259.52 242.94 261.42 240.39 263.43 C 242.13 264.33 243.85 265.27 245.51 266.32 C 243.86 267.29 242.08 268.03 240.28 268.69 C 240.14 272.33 239.97 275.98 239.96 279.63 C 238.67 278.30 237.14 277.23 235.30 276.84 C 235.40 279.01 236.19 281.61 234.50 283.41 C 233.12 284.74 231.44 285.71 230.04 287.02 C 229.06 289.60 228.91 292.41 228.33 295.10 C 230.26 296.98 232.41 299.02 232.16 301.98 C 230.31 301.71 228.47 301.44 226.63 301.18 C 226.30 304.38 226.07 307.60 225.94 310.82 C 229.52 313.08 231.41 316.86 231.95 320.97 C 231.45 321.53 230.97 322.09 230.49 322.66 C 231.40 322.98 232.31 323.30 233.23 323.63 C 233.92 325.19 234.63 326.76 235.34 328.32 C 235.10 329.10 234.89 329.90 234.66 330.69 C 235.35 331.21 236.04 331.74 236.74 332.27 C 236.93 333.43 237.12 334.59 237.32 335.76 C 237.91 334.67 238.50 333.57 239.10 332.48 C 240.80 334.51 242.31 336.69 243.60 339.01 C 242.10 339.79 240.61 340.59 239.11 341.37 C 240.63 341.62 242.15 341.86 243.66 342.18 C 243.82 342.53 244.15 343.22 244.31 343.57 C 240.91 343.56 237.45 343.40 234.33 341.91 C 234.73 337.90 234.83 333.41 231.75 330.34 C 226.71 324.22 217.99 326.50 211.15 324.86 C 209.42 319.10 213.15 312.85 210.24 307.43 C 209.55 305.60 207.26 306.95 205.96 306.59 C 208.89 302.13 210.90 297.11 212.52 292.05 C 214.10 287.92 210.99 284.17 210.58 280.14 C 207.29 280.21 203.76 279.61 202.54 276.12 C 202.49 273.55 203.03 271.06 203.68 268.60 C 202.10 268.72 200.53 268.85 198.95 268.97 C 198.36 268.48 197.77 267.98 197.18 267.50 C 193.51 268.91 189.49 268.81 185.64 268.57 C 183.91 263.42 185.84 257.79 184.21 252.61 C 183.68 251.18 183.39 249.70 183.45 248.18 C 183.45 245.56 181.75 243.36 181.13 240.88 C 176.33 240.06 171.50 239.58 166.66 239.43 C 163.41 235.98 159.70 232.45 154.87 231.57 C 151.51 231.04 148.38 229.62 145.01 229.10 C 140.78 228.68 139.28 223.47 135.03 223.03 C 132.76 221.45 133.31 218.78 133.61 216.42 C 130.99 214.25 133.46 210.75 133.07 207.93 C 132.71 204.73 134.65 201.05 132.37 198.30 C 129.51 200.18 126.54 202.22 122.99 202.36 C 120.02 202.61 118.12 205.13 115.70 206.51 C 112.83 207.99 109.62 208.61 106.68 209.90 C 106.94 210.83 107.45 212.69 107.71 213.62 C 104.18 213.67 100.60 214.06 97.13 213.23 C 94.09 212.43 90.81 212.97 87.91 211.61 C 85.99 212.51 83.91 212.86 81.81 212.58 C 79.19 207.92 80.45 202.48 80.06 197.40 C 77.81 199.13 75.74 201.28 73.00 202.22 C 70.66 202.18 68.40 201.34 66.03 201.44 C 63.93 201.53 63.12 199.17 61.96 197.83 C 59.77 198.59 57.71 200.35 55.28 199.86 C 54.73 196.67 56.75 193.18 54.51 190.33 C 51.98 186.58 50.22 182.37 48.91 178.05 C 48.78 174.88 49.14 171.05 52.06 169.13 C 53.69 167.66 56.88 167.69 57.18 165.08 C 58.31 160.80 58.85 156.37 58.74 151.95 C 65.18 149.23 70.90 143.77 78.45 144.96 C 82.29 144.66 86.09 143.44 89.41 141.51 C 92.47 136.78 91.51 130.78 93.52 125.67 C 95.46 120.79 97.21 115.44 95.85 110.17 C 94.73 106.90 91.64 104.83 90.25 101.72 C 89.74 99.55 89.63 96.90 91.21 95.12 C 94.27 93.71 97.78 93.92 101.06 93.50 C 100.60 88.79 95.11 89.27 91.63 89.05 C 91.85 87.56 91.72 85.92 92.57 84.60 C 98.69 84.38 104.77 83.48 110.90 83.38 C 112.84 83.30 114.54 82.28 116.26 81.51 C 117.54 83.90 117.43 86.63 117.88 89.22 C 120.62 91.11 123.77 92.37 126.30 94.58 C 127.88 94.03 129.44 93.46 131.02 92.90 C 132.48 94.02 133.86 95.86 135.90 95.67 C 139.13 94.20 140.37 89.89 144.12 89.29 C 148.45 88.43 151.12 84.52 155.12 82.92 C 155.75 80.98 156.36 79.04 156.97 77.09 C 154.59 75.84 151.96 75.29 149.42 74.49 C 147.54 72.73 148.41 69.94 148.26 67.68 C 148.45 64.76 146.56 62.33 145.11 59.96 C 150.48 62.33 156.45 62.79 162.06 64.33 C 166.15 65.33 167.29 60.19 170.99 60.01 C 176.36 59.20 180.44 55.44 185.21 53.22 C 185.48 51.92 185.74 50.61 186.01 49.30 Z" fill="#074a72" opacity="1.00" stroke="#074a72" stroke-width="0.25"/>
<path d="M 276.14 63.72 C 277.37 62.05 278.70 60.23 280.92 59.93 C 281.76 62.94 282.96 65.89 282.71 69.09 C 283.98 70.98 285.18 72.92 286.21 74.95 C 285.77 77.79 286.82 80.47 287.81 83.07 C 290.10 84.16 292.44 85.19 294.49 86.69 C 294.56 89.48 294.10 92.31 294.51 95.11 C 295.61 96.28 296.66 97.73 296.39 99.44 C 295.06 100.28 293.55 100.74 292.07 101.22 C 291.43 100.99 290.15 100.52 289.51 100.29 C 291.34 99.94 293.16 99.52 294.99 99.11 C 294.25 97.53 293.49 95.96 292.77 94.38 C 292.26 92.00 292.57 89.56 292.83 87.17 C 289.82 85.77 286.51 84.21 285.42 80.78 C 284.95 75.18 280.91 70.63 280.98 64.92 C 280.90 62.32 277.64 63.75 276.14 63.72 Z" fill="#0e2b3e" opacity="1.00" stroke="#0e2b3e" stroke-width="0.25"/>
<path d="M 285.42 80.78 C 286.51 84.21 289.82 85.77 292.83 87.17 C 292.57 89.56 292.26 92.00 292.77 94.38 C 288.94 93.90 288.49 98.51 286.56 100.78 C 284.19 102.48 281.88 104.28 279.77 106.30 C 278.63 102.23 279.89 98.10 280.01 94.00 C 280.09 91.62 280.36 89.24 280.96 86.93 C 280.61 85.35 280.64 83.73 280.98 82.15 C 282.24 82.24 283.50 82.33 284.76 82.37 C 284.92 81.97 285.25 81.18 285.42 80.78 Z" fill="#0c5580" opacity="1.00" stroke="#0c5580" stroke-width="0.25"/>
<path d="M 286.56 100.78 C 288.49 98.51 288.94 93.90 292.77 94.38 C 293.49 95.96 294.25 97.53 294.99 99.11 C 293.16 99.52 291.34 99.94 289.51 100.29 C 288.52 100.43 287.53 100.60 286.56 100.78 Z" fill="#2e7fa5" opacity="1.00" stroke="#2e7fa5" stroke-width="0.25"/>
<path d="M 286.56 100.78 C 287.53 100.60 288.52 100.43 289.51 100.29 C 290.15 100.52 291.43 100.99 292.07 101.22 C 290.62 101.65 289.17 102.09 287.73 102.55 C 286.32 104.27 284.64 105.75 282.87 107.09 L 285.19 106.94 C 286.57 109.53 282.91 110.14 281.31 111.14 C 281.53 111.62 281.96 112.57 282.18 113.04 C 280.16 113.88 278.04 114.94 275.82 114.13 C 276.91 111.41 278.09 108.71 279.77 106.30 C 281.88 104.28 284.19 102.48 286.56 100.78 Z" fill="#225276" opacity="1.00" stroke="#225276" stroke-width="0.25"/>
<path d="M 290.00 105.55 C 293.64 104.61 297.14 102.28 301.03 103.26 C 303.87 103.93 307.64 103.00 309.57 105.70 C 308.06 109.14 306.29 112.50 305.48 116.20 C 306.55 116.70 307.62 117.21 308.70 117.72 C 307.82 117.96 306.94 118.19 306.07 118.43 C 306.58 118.65 307.61 119.11 308.13 119.34 C 306.97 120.30 305.88 121.33 304.80 122.38 C 303.02 122.23 300.87 122.94 299.35 121.82 C 298.06 118.41 300.48 115.30 301.07 112.04 C 301.38 110.33 299.82 109.41 298.79 108.39 C 298.67 108.09 298.44 107.49 298.32 107.20 C 295.94 107.34 293.56 107.55 291.19 107.84 C 291.96 107.11 292.74 106.39 293.51 105.66 C 292.63 105.63 290.88 105.57 290.00 105.55 Z" fill="#17618b" opacity="1.00" stroke="#17618b" stroke-width="0.25"/>
<path d="M 285.19 106.94 C 286.75 106.37 288.31 105.68 290.00 105.55 C 290.88 105.57 292.63 105.63 293.51 105.66 C 292.74 106.39 291.96 107.11 291.19 107.84 C 293.56 107.55 295.94 107.34 298.32 107.20 C 298.44 107.49 298.67 108.09 298.79 108.39 C 299.82 109.41 301.38 110.33 301.07 112.04 C 300.48 115.30 298.06 118.41 299.35 121.82 C 300.87 122.94 303.02 122.23 304.80 122.38 C 305.88 121.33 306.97 120.30 308.13 119.34 C 308.59 118.96 309.51 118.22 309.97 117.85 C 310.36 115.99 310.65 114.08 311.38 112.31 C 313.97 110.60 317.45 108.96 320.48 110.54 C 325.84 113.06 331.22 115.54 336.57 118.08 C 338.91 118.92 342.78 117.71 343.46 120.99 C 343.72 124.27 343.55 127.59 344.16 130.83 C 347.63 130.39 350.88 129.08 354.22 128.11 C 357.67 127.13 361.16 128.35 364.46 129.30 C 368.95 130.59 373.41 132.02 377.97 133.04 C 381.03 133.90 384.02 132.40 387.01 131.94 C 390.05 131.14 392.69 133.41 395.42 134.39 C 399.81 136.11 403.37 139.26 407.39 141.64 C 407.54 142.16 407.84 143.20 407.99 143.72 C 408.23 145.39 408.36 147.07 408.44 148.76 C 410.68 151.43 412.98 154.27 416.30 155.63 C 416.32 156.98 416.34 158.35 416.37 159.71 C 415.33 159.33 414.33 158.88 413.26 158.62 C 412.02 159.25 410.92 160.12 409.78 160.91 C 409.92 161.59 410.19 162.96 410.33 163.64 C 411.59 163.91 412.86 164.18 414.13 164.46 C 414.14 166.97 412.59 168.85 410.86 170.48 C 413.10 171.47 415.48 172.10 417.90 172.48 C 418.21 174.73 418.24 177.04 418.81 179.26 C 421.93 182.47 425.78 185.01 429.95 186.66 C 430.06 189.10 429.49 191.48 428.65 193.75 C 427.32 192.48 425.87 191.34 424.18 190.61 C 425.32 193.00 426.60 195.34 427.74 197.75 C 427.05 199.47 426.57 201.27 426.51 203.14 C 426.37 206.43 424.97 209.61 425.44 212.93 L 425.51 214.00 C 423.79 215.41 421.81 216.70 420.79 218.75 C 419.11 223.72 416.69 228.59 412.91 232.31 C 411.15 234.04 410.46 236.88 407.94 237.74 C 408.66 234.85 408.84 231.86 408.64 228.90 C 404.52 230.93 404.53 235.98 402.21 239.43 C 400.06 242.84 399.21 247.04 399.76 251.02 C 400.15 252.95 402.02 253.98 403.33 255.24 C 403.77 259.31 402.72 263.36 403.19 267.42 C 401.93 272.66 402.95 277.97 402.61 283.28 C 400.28 284.45 397.94 286.12 397.55 288.92 C 396.08 292.87 397.82 297.42 395.72 301.14 C 394.78 297.86 394.58 294.45 394.23 291.08 C 393.06 292.34 392.27 294.26 390.41 294.58 C 386.39 295.49 382.26 295.82 378.21 296.54 C 379.16 297.61 380.11 298.67 381.07 299.74 C 376.41 303.82 377.11 310.50 374.76 315.76 C 372.49 320.01 377.47 323.34 377.65 327.55 C 378.13 327.92 379.09 328.67 379.57 329.05 C 377.84 329.74 376.18 330.61 374.70 331.74 C 373.81 333.99 371.72 335.13 369.51 335.77 C 365.11 338.05 361.04 333.80 356.49 334.02 C 356.77 333.65 357.32 332.91 357.60 332.54 C 353.52 332.54 349.99 330.43 346.83 328.07 C 344.84 329.09 344.24 331.10 344.03 333.18 C 342.42 331.55 342.24 329.19 341.50 327.14 C 340.85 326.03 338.40 327.10 338.60 328.19 C 338.77 330.86 339.95 333.79 338.24 336.24 C 336.98 338.46 334.16 337.24 332.17 337.13 C 333.11 338.64 333.99 340.20 334.72 341.83 C 336.75 341.60 338.76 341.31 340.76 340.93 C 338.76 344.55 334.02 342.44 330.88 343.95 C 324.56 346.43 320.13 351.72 314.93 355.85 C 311.04 358.85 307.48 362.24 304.23 365.91 C 305.07 367.49 306.51 369.12 305.95 371.06 C 305.16 374.72 306.29 378.47 305.53 382.15 C 304.88 385.35 304.66 388.65 303.75 391.80 C 300.72 394.87 296.87 397.05 293.99 400.29 C 291.96 403.27 291.26 407.22 288.03 409.31 L 287.52 409.45 C 283.20 410.15 284.05 415.95 281.86 418.81 C 278.29 423.21 273.40 426.37 269.85 430.83 C 265.32 435.06 265.41 442.13 260.51 446.10 L 260.07 446.01 C 259.38 445.17 258.85 444.22 258.27 443.33 C 257.42 445.59 257.71 448.16 256.01 450.11 C 255.08 446.47 256.30 442.99 258.44 440.11 C 258.20 437.94 256.95 436.01 255.65 434.32 C 253.28 432.14 249.88 431.56 247.37 429.60 C 245.47 426.48 243.27 423.04 239.56 421.91 L 239.56 421.89 C 239.53 421.52 239.45 420.77 239.42 420.40 C 238.26 419.57 237.05 418.83 235.84 418.08 C 234.75 415.98 233.61 413.86 231.91 412.18 C 229.21 409.64 228.94 405.77 228.01 402.41 C 229.28 401.80 230.55 401.19 231.82 400.60 C 231.55 398.82 230.83 397.17 229.80 395.70 C 229.87 395.20 229.99 394.20 230.06 393.70 C 229.54 393.65 228.50 393.56 227.98 393.52 C 231.25 392.99 232.64 389.93 234.53 387.65 C 238.58 385.45 241.65 381.85 245.80 379.81 C 248.66 378.14 252.30 376.85 253.46 373.41 C 253.61 373.14 253.91 372.60 254.05 372.33 C 254.52 372.33 255.44 372.33 255.91 372.32 C 255.69 371.49 255.47 370.65 255.26 369.83 C 256.07 369.27 256.87 368.69 257.68 368.13 C 261.16 371.56 261.86 376.63 264.41 380.64 C 267.56 382.40 270.06 378.33 272.47 376.84 C 271.07 374.85 269.39 373.05 268.28 370.88 C 266.91 366.33 270.91 362.49 270.33 357.97 C 270.17 354.89 270.70 351.80 270.39 348.72 C 266.65 348.18 262.90 347.61 259.35 346.26 C 259.39 344.11 259.51 341.95 259.76 339.82 C 258.63 339.59 257.51 338.77 256.34 339.16 C 254.38 339.65 254.10 341.91 253.23 343.42 C 250.32 343.74 247.99 345.24 246.55 347.79 L 245.73 348.07 C 245.35 346.54 244.86 345.04 244.31 343.57 C 244.15 343.22 243.82 342.53 243.66 342.18 C 242.15 341.86 240.63 341.62 239.11 341.37 C 240.61 340.59 242.10 339.79 243.60 339.01 C 242.31 336.69 240.80 334.51 239.10 332.48 C 238.50 333.57 237.91 334.67 237.32 335.76 C 237.12 334.59 236.93 333.43 236.74 332.27 C 236.04 331.74 235.35 331.21 234.66 330.69 C 234.89 329.90 235.10 329.10 235.34 328.32 C 234.63 326.76 233.92 325.19 233.23 323.63 C 232.31 323.30 231.40 322.98 230.49 322.66 C 230.97 322.09 231.45 321.53 231.95 320.97 C 231.41 316.86 229.52 313.08 225.94 310.82 C 226.07 307.60 226.30 304.38 226.63 301.18 C 228.47 301.44 230.31 301.71 232.16 301.98 C 232.41 299.02 230.26 296.98 228.33 295.10 C 228.91 292.41 229.06 289.60 230.04 287.02 C 231.44 285.71 233.12 284.74 234.50 283.41 C 236.19 281.61 235.40 279.01 235.30 276.84 C 237.14 277.23 238.67 278.30 239.96 279.63 C 239.97 275.98 240.14 272.33 240.28 268.69 C 242.08 268.03 243.86 267.29 245.51 266.32 C 243.85 265.27 242.13 264.33 240.39 263.43 C 242.94 261.42 245.59 259.52 248.41 257.89 C 247.46 255.25 246.65 252.57 245.89 249.88 C 247.05 250.60 248.22 251.33 249.38 252.07 C 252.16 250.41 254.39 247.76 254.23 244.35 C 252.84 244.08 251.45 243.81 250.06 243.55 C 250.32 242.89 250.58 242.23 250.85 241.57 C 252.46 241.46 254.69 242.53 255.72 240.78 C 256.21 237.56 256.30 234.25 257.46 231.16 C 256.25 231.33 255.05 231.50 253.85 231.66 C 254.19 227.44 258.43 226.32 261.86 225.52 C 260.50 218.98 257.70 212.22 259.68 205.50 C 260.93 201.89 262.25 198.31 263.66 194.77 C 265.47 190.03 271.99 188.53 272.27 183.00 C 273.34 178.82 271.30 174.91 270.25 170.98 C 270.39 167.05 271.43 162.48 275.27 160.54 C 276.15 156.03 277.96 151.68 277.98 147.03 C 277.93 143.93 279.13 141.05 279.72 138.05 C 280.24 129.69 283.44 121.49 282.18 113.04 C 281.96 112.57 281.53 111.62 281.31 111.14 C 282.91 110.14 286.57 109.53 285.19 106.94 Z" fill="#0e5480" opacity="1.00" stroke="#0e5480" stroke-width="0.25"/>
<path d="M 311.12 110.81 C 314.00 109.23 317.90 106.80 321.05 109.03 C 325.30 111.42 329.75 113.56 334.51 114.72 C 336.01 114.93 336.10 116.67 336.76 117.71 C 338.47 116.94 340.22 116.25 342.01 115.67 C 342.84 117.28 344.08 118.62 345.02 120.17 C 346.02 122.74 345.07 125.52 344.72 128.12 C 347.99 128.05 351.53 128.27 354.47 126.58 C 358.38 125.08 362.17 127.87 366.03 128.28 C 371.71 129.20 377.10 132.09 382.93 131.76 C 385.74 129.98 389.64 129.20 392.56 131.18 C 394.24 132.46 396.19 133.26 398.16 134.01 C 401.81 135.48 404.41 138.76 408.24 139.89 C 408.68 141.06 409.11 142.24 409.56 143.42 C 413.81 145.20 417.21 148.43 421.16 150.71 C 423.02 153.97 426.96 152.95 430.09 153.40 C 433.62 153.63 436.04 156.60 439.27 157.67 C 440.28 161.37 442.70 164.40 444.17 167.88 C 444.93 171.38 444.77 175.08 443.82 178.53 C 443.01 174.20 444.09 169.46 441.71 165.52 C 440.41 163.13 439.29 160.57 437.36 158.62 C 434.25 156.27 430.44 154.48 426.46 154.80 C 422.72 155.11 420.32 151.98 417.60 150.01 C 414.50 147.75 411.82 144.75 407.99 143.72 C 407.84 143.20 407.54 142.16 407.39 141.64 C 403.37 139.26 399.81 136.11 395.42 134.39 C 392.69 133.41 390.05 131.14 387.01 131.94 C 384.02 132.40 381.03 133.90 377.97 133.04 C 373.41 132.02 368.95 130.59 364.46 129.30 C 361.16 128.35 357.67 127.13 354.22 128.11 C 350.88 129.08 347.63 130.39 344.16 130.83 C 343.55 127.59 343.72 124.27 343.46 120.99 C 342.78 117.71 338.91 118.92 336.57 118.08 C 331.22 115.54 325.84 113.06 320.48 110.54 C 317.45 108.96 313.97 110.60 311.38 112.31 C 310.65 114.08 310.36 115.99 309.97 117.85 C 309.51 118.22 308.59 118.96 308.13 119.34 C 307.61 119.11 306.58 118.65 306.07 118.43 C 306.94 118.19 307.82 117.96 308.70 117.72 C 309.36 115.47 308.53 112.02 311.12 110.81 Z" fill="#0a3046" opacity="1.00" stroke="#0a3046" stroke-width="0.25"/>
<path d="M 407.99 143.72 C 411.82 144.75 414.50 147.75 417.60 150.01 C 420.32 151.98 422.72 155.11 426.46 154.80 C 423.24 156.14 419.66 156.96 416.30 155.63 C 412.98 154.27 410.68 151.43 408.44 148.76 C 408.36 147.07 408.23 145.39 407.99 143.72 Z" fill="#216992" opacity="1.00" stroke="#216992" stroke-width="0.25"/>
<path d="M 416.30 155.63 C 419.66 156.96 423.24 156.14 426.46 154.80 C 430.44 154.48 434.25 156.27 437.36 158.62 C 439.29 160.57 440.41 163.13 441.71 165.52 C 444.09 169.46 443.01 174.20 443.82 178.53 C 445.25 183.08 443.05 187.46 441.82 191.77 C 439.89 196.76 438.78 202.79 433.86 205.82 C 430.37 207.68 428.26 211.10 425.70 213.96 L 425.44 212.93 C 424.97 209.61 426.37 206.43 426.51 203.14 C 426.57 201.27 427.05 199.47 427.74 197.75 C 426.60 195.34 425.32 193.00 424.18 190.61 C 425.87 191.34 427.32 192.48 428.65 193.75 C 429.49 191.48 430.06 189.10 429.95 186.66 C 425.78 185.01 421.93 182.47 418.81 179.26 C 418.24 177.04 418.21 174.73 417.90 172.48 C 415.48 172.10 413.10 171.47 410.86 170.48 C 412.59 168.85 414.14 166.97 414.13 164.46 C 412.86 164.18 411.59 163.91 410.33 163.64 C 410.19 162.96 409.92 161.59 409.78 160.91 C 410.92 160.12 412.02 159.25 413.26 158.62 C 414.33 158.88 415.33 159.33 416.37 159.71 C 416.34 158.35 416.32 156.98 416.30 155.63 Z" fill="#135a86" opacity="1.00" stroke="#135a86" stroke-width="0.25"/>
<path d="M 402.21 239.43 C 404.53 235.98 404.52 230.93 408.64 228.90 C 408.84 231.86 408.66 234.85 407.94 237.74 C 406.82 239.38 404.74 240.72 404.80 242.92 C 404.91 248.94 404.18 254.96 404.60 260.98 C 404.59 263.20 405.61 266.07 403.19 267.42 C 402.72 263.36 403.77 259.31 403.33 255.24 C 402.02 253.98 400.15 252.95 399.76 251.02 C 399.21 247.04 400.06 242.84 402.21 239.43 Z" fill="#1c628b" opacity="1.00" stroke="#1c628b" stroke-width="0.25"/>
<path d="M 390.41 294.58 C 392.27 294.26 393.06 292.34 394.23 291.08 C 394.58 294.45 394.78 297.86 395.72 301.14 C 394.37 303.92 393.15 306.78 391.64 309.49 C 389.43 310.28 387.34 311.37 385.34 312.59 C 385.44 314.52 385.54 316.45 385.64 318.39 C 385.10 317.12 384.56 315.86 384.03 314.60 C 380.98 315.47 377.41 316.90 376.40 320.21 C 377.44 321.48 378.70 322.55 379.87 323.70 C 380.05 322.72 380.25 321.74 380.47 320.78 C 380.96 320.60 381.94 320.25 382.43 320.08 C 382.43 322.73 382.35 325.38 382.20 328.03 C 381.32 328.37 380.45 328.71 379.57 329.05 C 379.09 328.67 378.13 327.92 377.65 327.55 C 377.47 323.34 372.49 320.01 374.76 315.76 C 377.11 310.50 376.41 303.82 381.07 299.74 C 380.11 298.67 379.16 297.61 378.21 296.54 C 382.26 295.82 386.39 295.49 390.41 294.58 Z" fill="#246995" opacity="1.00" stroke="#246995" stroke-width="0.25"/>
<path d="M 205.64 307.77 C 208.78 306.45 205.34 311.23 205.64 307.77 Z" fill="#474747" opacity="1.00" stroke="#474747" stroke-width="0.25"/>
<path d="M 208.23 307.23 L 210.24 307.43 C 213.15 312.85 209.42 319.10 211.15 324.86 C 217.99 326.50 226.71 324.22 231.75 330.34 C 234.83 333.41 234.73 337.90 234.33 341.91 C 237.45 343.40 240.91 343.56 244.31 343.57 C 244.86 345.04 245.35 346.54 245.73 348.07 C 245.87 353.29 244.39 359.21 248.20 363.54 C 246.48 363.57 244.91 363.03 244.87 361.07 C 243.81 356.00 244.60 350.75 243.49 345.68 C 242.90 345.40 241.73 344.85 241.15 344.57 C 239.72 345.17 238.30 345.77 236.89 346.40 C 235.30 345.48 233.05 344.65 232.82 342.54 C 232.38 338.86 233.37 334.49 230.54 331.53 C 225.36 325.34 216.30 329.15 209.56 326.43 C 207.70 320.12 210.15 313.55 208.23 307.23 Z" fill="#193b50" opacity="1.00" stroke="#193b50" stroke-width="0.25"/>
<path d="M 376.40 320.21 C 377.41 316.90 380.98 315.47 384.03 314.60 C 384.56 315.86 385.10 317.12 385.64 318.39 C 384.60 319.00 383.58 319.68 382.43 320.08 C 381.94 320.25 380.96 320.60 380.47 320.78 C 380.25 321.74 380.05 322.72 379.87 323.70 C 378.70 322.55 377.44 321.48 376.40 320.21 Z" fill="#155a84" opacity="1.00" stroke="#155a84" stroke-width="0.25"/>
<path d="M 338.60 328.19 C 338.40 327.10 340.85 326.03 341.50 327.14 C 342.24 329.19 342.42 331.55 344.03 333.18 C 344.24 331.10 344.84 329.09 346.83 328.07 C 349.99 330.43 353.52 332.54 357.60 332.54 C 357.32 332.91 356.77 333.65 356.49 334.02 C 353.93 333.99 351.30 334.12 349.04 335.47 C 348.58 335.05 348.13 334.64 347.69 334.22 C 347.10 334.49 345.91 335.04 345.32 335.32 C 345.73 336.18 346.16 337.05 346.60 337.91 C 346.75 337.51 347.05 336.71 347.20 336.31 C 347.63 336.38 348.48 336.52 348.91 336.59 C 349.46 340.33 345.80 338.68 343.89 339.27 C 342.60 339.21 341.79 340.37 340.76 340.93 C 338.76 341.31 336.75 341.60 334.72 341.83 C 333.99 340.20 333.11 338.64 332.17 337.13 C 334.16 337.24 336.98 338.46 338.24 336.24 C 339.95 333.79 338.77 330.86 338.60 328.19 Z" fill="#216b95" opacity="1.00" stroke="#216b95" stroke-width="0.25"/>
<path d="M 256.34 339.16 C 257.51 338.77 258.63 339.59 259.76 339.82 C 259.51 341.95 259.39 344.11 259.35 346.26 C 262.90 347.61 266.65 348.18 270.39 348.72 C 270.70 351.80 270.17 354.89 270.33 357.97 C 270.91 362.49 266.91 366.33 268.28 370.88 C 269.39 373.05 271.07 374.85 272.47 376.84 C 270.06 378.33 267.56 382.40 264.41 380.64 C 261.86 376.63 261.16 371.56 257.68 368.13 C 253.97 365.20 249.36 361.40 250.87 356.06 C 249.46 353.29 248.10 350.49 246.55 347.79 C 247.99 345.24 250.32 343.74 253.23 343.42 C 254.10 341.91 254.38 339.65 256.34 339.16 Z" fill="#07486f" opacity="1.00" stroke="#07486f" stroke-width="0.25"/>
<path d="M 245.73 348.07 L 246.55 347.79 C 248.10 350.49 249.46 353.29 250.87 356.06 C 249.36 361.40 253.97 365.20 257.68 368.13 C 256.87 368.69 256.07 369.27 255.26 369.83 C 255.47 370.65 255.69 371.49 255.91 372.32 C 255.44 372.33 254.52 372.33 254.05 372.33 C 253.91 372.60 253.61 373.14 253.46 373.41 C 251.19 370.40 250.39 366.60 248.20 363.54 C 244.39 359.21 245.87 353.29 245.73 348.07 Z" fill="#15608c" opacity="1.00" stroke="#15608c" stroke-width="0.25"/>
<path d="M 222.23 402.64 C 223.48 399.21 225.65 396.28 227.98 393.52 C 228.50 393.56 229.54 393.65 230.06 393.70 C 229.99 394.20 229.87 395.20 229.80 395.70 C 230.83 397.17 231.55 398.82 231.82 400.60 C 230.55 401.19 229.28 401.80 228.01 402.41 C 228.94 405.77 229.21 409.64 231.91 412.18 C 233.61 413.86 234.75 415.98 235.84 418.08 C 234.12 417.80 232.37 417.68 230.69 417.21 C 228.73 415.20 227.61 412.44 225.29 410.78 C 223.54 409.44 221.77 408.14 220.12 406.69 C 221.15 405.44 222.18 404.19 223.21 402.94 L 222.23 402.64 Z" fill="#03456d" opacity="1.00" stroke="#03456d" stroke-width="0.25"/>
<path d="M 217.47 406.56 C 218.77 404.96 219.74 402.51 222.23 402.64 L 223.21 402.94 C 222.18 404.19 221.15 405.44 220.12 406.69 C 221.77 408.14 223.54 409.44 225.29 410.78 C 227.61 412.44 228.73 415.20 230.69 417.21 C 232.37 417.68 234.12 417.80 235.84 418.08 C 237.05 418.83 238.26 419.57 239.42 420.40 C 239.45 420.77 239.53 421.52 239.56 421.89 C 237.55 421.38 236.10 419.68 234.10 419.21 C 232.29 419.17 230.50 419.35 228.70 419.46 C 227.84 415.63 225.30 412.38 222.04 410.27 C 219.19 410.32 216.80 412.30 213.99 412.43 C 212.28 412.48 211.70 411.69 212.27 410.06 C 213.88 408.71 215.98 408.05 217.47 406.56 Z" fill="#0e324a" opacity="1.00" stroke="#0e324a" stroke-width="0.25"/>
<path d="M 281.86 418.81 C 284.05 415.95 283.20 410.15 287.52 409.45 C 286.50 411.97 284.51 414.23 284.60 417.09 C 284.83 418.94 282.93 419.80 281.86 420.95 C 280.39 424.06 276.86 425.22 274.89 427.93 C 271.64 431.04 268.13 434.11 266.78 438.59 C 265.55 444.57 258.65 447.30 257.93 453.53 C 255.37 451.05 258.17 447.87 260.07 446.01 L 260.51 446.10 C 265.41 442.13 265.32 435.06 269.85 430.83 C 273.40 426.37 278.29 423.21 281.86 418.81 Z" fill="#0a3046" opacity="1.00" stroke="#0a3046" stroke-width="0.25"/>
</svg>